# xmcd
#
# Track frame offsets:
#	150
#	12969
#	22527
#	42448
#	54501
#	63725
#	75356
#	91896
#	106504
#	117437
#	131882
#	154269
#
# Disc length: 2372 seconds
#
# Revision: 1
# Processed by: cddbd v1.5.2PL0 Copyright (c) Steve Scherf et al.
# Submitted via: audiograbber 1.83.01
#
DISCID=8c09420c
DTITLE=Glen Campbell - Rhinestone Cowboy [CD1)
DYEAR=2006
DGENRE=Country
TTITLE0=Rhinestone Cowboy
TTITLE1=Gentle On My Mind
TTITLE2=Medley - Witchita Lineman - Galveston - Country Boy
TTITLE3=By The Time I Get To Pheonix
TTITLE4=Dreams Of The Every Day Housewife
TTITLE5=Heartache Number Three
TTITLE6=Please Come To Boston
TTITLE7=Trials And Tribulations
TTITLE8=It's Only Make Believe
TTITLE9=Crying
TTITLE10=Bluegrass Medley
TTITLE11=Milkcow Blues
EXTD=
EXTT0=
EXTT1=
EXTT2=
EXTT3=
EXTT4=
EXTT5=
EXTT6=
EXTT7=
EXTT8=
EXTT9=
EXTT10=
EXTT11=
PLAYORDER=
